<svg id="Capa_1" enable-background="new 0 0 512 512" height="512" fill="green" viewBox="0 0 512 512" width="512" xmlns="http://www.w3.org/2000/svg"><g><g><g><path d="m230.606 191.788h-115.024c-4.143 0-7.502 3.358-7.502 7.502s3.359 7.502 7.502 7.502h115.024c4.143 0 7.502-3.358 7.502-7.502s-3.359-7.502-7.502-7.502z"/><path d="m230.606 230.937h-115.024c-4.143 0-7.502 3.358-7.502 7.502s3.359 7.502 7.502 7.502h115.024c4.143 0 7.502-3.358 7.502-7.502s-3.359-7.502-7.502-7.502z"/><path d="m230.606 436.178h-115.024c-4.143 0-7.502 3.358-7.502 7.502s3.359 7.502 7.502 7.502h115.024c4.143 0 7.502-3.358 7.502-7.502 0-4.143-3.359-7.502-7.502-7.502z"/><path d="m425.065 191.788h-115.024c-4.143 0-7.502 3.358-7.502 7.502s3.359 7.502 7.502 7.502h115.024c4.143 0 7.502-3.358 7.502-7.502s-3.358-7.502-7.502-7.502z"/><path d="m425.065 230.937h-19.021c-4.143 0-7.502 3.358-7.502 7.502s3.359 7.502 7.502 7.502h19.021c4.143 0 7.502-3.358 7.502-7.502s-3.358-7.502-7.502-7.502z"/><path d="m123.927 155.79h292.791c9.39 0 17.029-7.639 17.029-17.028v-78.4c0-9.389-7.639-17.028-17.029-17.028h-292.791c-9.39 0-17.028 7.639-17.028 17.028v21.966c0 4.144 3.359 7.502 7.502 7.502s7.502-3.358 7.502-7.502v-21.965c0-1.116.908-2.023 2.024-2.023h292.791c1.116 0 2.024.908 2.024 2.023v78.4c0 1.116-.908 2.023-2.024 2.023h-292.791c-1.116 0-2.024-.908-2.024-2.023v-21.663c0-4.144-3.359-7.502-7.502-7.502s-7.502 3.358-7.502 7.502v21.663c0 9.388 7.639 17.027 17.028 17.027z"/><path d="m407.488 356.16c-4.024-1-8.091 1.448-9.092 5.469-7.163 28.789-33.19 50.555-64.761 50.555-17.828 0-34.588-6.943-47.194-19.549s-19.549-29.367-19.549-47.193c0-17.828 6.943-34.589 19.549-47.194 26.023-26.024 68.366-26.024 94.388 0 8.766 8.765 14.902 19.739 17.744 31.735.955 4.032 4.997 6.526 9.03 5.57 4.032-.955 6.525-4.999 5.57-9.03-3.484-14.705-11-28.151-21.735-38.885-31.873-31.873-83.735-31.873-115.608 0-31.873 31.874-31.873 83.735 0 115.609 15.937 15.937 36.87 23.905 57.804 23.905 38.1 0 70.408-26.067 79.322-61.899 1.002-4.022-1.447-8.092-5.468-9.093z"/><path d="m492.718 468.455-18.297-18.297v-420.032c0-16.612-13.515-30.126-30.126-30.126h-346.013c-16.611 0-30.125 13.514-30.125 30.126v122.062h-33.52c-12.589 0-22.83 10.241-22.83 22.83v301.299c0 19.672 16.005 35.677 35.678 35.677h383.539c9.131 0 17.813-2.809 25.097-8l.529.529c9.967 9.968 26.099 9.97 36.068.001 9.967-9.968 9.968-26.099 0-36.069zm-442.713 28.535h-2.521c-11.399 0-20.673-9.273-20.673-20.672v-301.3c0-4.315 3.51-7.826 7.826-7.826h33.52v309.291c0 10.49-7.786 19.25-18.152 20.507zm381.018 0h-354.312c4.079-5.817 6.451-12.9 6.451-20.506v-446.358c0-8.338 6.783-15.121 15.12-15.121h346.013c8.338 0 15.121 6.783 15.121 15.121v405.028l-30.242-30.242c11.046-17.671 16.962-38.115 16.962-59.471 0-30.05-11.702-58.301-32.951-79.55-43.864-43.863-115.236-43.863-159.1 0-8.496 8.496-15.462 18.115-20.767 28.518h-117.736c-4.143 0-7.502 3.358-7.502 7.502s3.359 7.502 7.502 7.502h111.423c-2.619 7.775-4.384 15.861-5.248 24.144h-106.175c-4.143 0-7.502 3.358-7.502 7.502s3.359 7.502 7.502 7.502h105.598c.472 17.453 4.903 34.231 12.861 49.304-1.03-.532-2.196-.837-3.435-.837h-115.024c-4.143 0-7.502 3.358-7.502 7.502s3.359 7.502 7.502 7.502h115.024c4.019 0 7.29-3.162 7.484-7.133 4.499 7.199 9.844 13.94 15.995 20.091 21.932 21.932 50.741 32.897 79.55 32.897 20.664 0 41.328-5.643 59.454-16.926l52.191 52.19c-4.284 2.501-9.164 3.839-14.257 3.839zm-97.388-54.098c-24.963-.002-49.936-9.505-68.94-28.51-18.414-18.414-28.556-42.898-28.556-68.941s10.141-50.526 28.556-68.94c19.007-19.007 43.974-28.51 68.94-28.51 24.967 0 49.934 9.503 68.941 28.51 18.414 18.414 28.556 42.897 28.556 68.94 0 20.292-6.159 39.638-17.59 55.904-.115.152-.228.304-.33.463-18.353 25.793-47.762 41.087-79.577 41.084zm148.472 51.022c-4.101 4.102-10.744 4.105-14.848-.001-.398-.398-61.847-61.847-61.847-61.847 5.255-4.361 10.144-9.18 14.853-14.843 12.103 12.103 51.057 51.056 61.842 61.841 4.104 4.106 4.105 10.745 0 14.85z"/></g></g></g></svg>