<svg id="Layer_1" fill = "white" enable-background="new 0 0 512.016 512.016" height="512" viewBox="0 0 512.016 512.016" width="512" xmlns="http://www.w3.org/2000/svg"><g id="XMLID_1220_"><g id="XMLID_339_"><path id="XMLID_349_" d="m480.516 451.667-75.202-130.253c2.701-3.147 6.372-5.475 10.656-6.485 11.846-2.791 21.669-10.681 26.949-21.646 5.281-10.965 5.324-23.564.121-34.565-3.983-8.42-1.707-18.393 5.535-24.251 9.462-7.655 14.889-19.025 14.889-31.195s-5.427-23.541-14.889-31.195c-7.242-5.858-9.518-15.831-5.535-24.251 5.204-11.002 5.16-23.601-.121-34.566-5.28-10.965-15.103-18.855-26.95-21.646-9.066-2.136-15.444-10.133-15.509-19.448-.084-12.17-5.591-23.502-15.106-31.09s-21.79-10.435-33.672-7.809c-9.097 2.008-18.312-2.429-22.412-10.793-5.357-10.928-15.234-18.749-27.1-21.457-11.867-2.709-24.159.053-33.727 7.574-7.322 5.757-17.551 5.757-24.874 0-9.568-7.521-21.86-10.281-33.726-7.574-11.866 2.708-21.743 10.529-27.1 21.457-4.1 8.364-13.319 12.804-22.411 10.793-11.884-2.624-24.158.221-33.672 7.809-9.515 7.588-15.021 18.92-15.106 31.09-.065 9.314-6.443 17.312-15.51 19.448-11.846 2.791-21.669 10.681-26.949 21.646-5.281 10.965-5.324 23.564-.121 34.565 3.983 8.42 1.707 18.393-5.535 24.251-9.462 7.655-14.889 19.025-14.889 31.195s5.427 23.541 14.889 31.195c7.242 5.858 9.518 15.831 5.535 24.251-5.204 11.002-5.16 23.601.121 34.566 5.28 10.965 15.103 18.855 26.95 21.646 4.284 1.009 7.955 3.338 10.656 6.485l-75.201 130.253c-2.025 3.508-1.734 7.891.736 11.1 2.471 3.209 6.633 4.61 10.542 3.551l52.377-14.21 13.883 52.465c1.036 3.916 4.332 6.819 8.347 7.354.443.059.885.088 1.324.088 3.537 0 6.855-1.88 8.657-5l64.168-111.141c5.082 4.704 11.349 8.064 18.311 9.653 11.864 2.706 24.158-.053 33.727-7.574 7.322-5.757 17.551-5.757 24.874 0 7.16 5.628 15.844 8.591 24.735 8.591 2.99 0 6.005-.335 8.991-1.017 6.962-1.589 13.23-4.949 18.311-9.653l64.168 111.141c1.802 3.121 5.12 5 8.657 5 .438 0 .881-.029 1.324-.088 4.015-.535 7.311-3.439 8.347-7.354l13.883-52.465 52.377 14.21c3.909 1.062 8.072-.342 10.542-3.551s2.761-7.592.735-11.1zm-358.346 24.348-10.254-38.75c-.682-2.574-2.361-4.771-4.667-6.102-2.307-1.332-5.048-1.688-7.618-.991l-38.686 10.495 53.254-92.238c2.52 6.604 6.766 12.495 12.463 17.039 9.515 7.588 21.79 10.435 33.672 7.809 6.711-1.482 13.482.554 18.221 5.079zm175.551-89.986c-5.954 1.357-12.117-.027-16.915-3.798-7.301-5.74-16.048-8.609-24.798-8.609-8.748 0-17.499 2.87-24.798 8.609-4.798 3.772-10.961 5.157-16.915 3.798-5.951-1.358-10.905-5.281-13.592-10.762-8.174-16.676-26.551-25.525-44.684-21.519-5.961 1.317-12.116-.111-16.888-3.917s-7.534-9.489-7.577-15.593c-.129-18.571-12.845-34.516-30.922-38.775-5.942-1.4-10.868-5.357-13.517-10.857-2.648-5.5-2.67-11.818-.06-17.337 7.94-16.788 3.402-36.671-11.037-48.351-4.746-3.839-7.467-9.542-7.467-15.646s2.722-11.807 7.468-15.646c14.438-11.68 18.977-31.563 11.036-48.352-2.61-5.518-2.588-11.837.061-17.336 2.648-5.5 7.575-9.457 13.516-10.857 18.077-4.259 30.793-20.204 30.922-38.775.043-6.104 2.804-11.788 7.577-15.593 4.772-3.806 10.926-5.235 16.889-3.917 18.131 4.003 36.509-4.843 44.683-21.519 2.687-5.481 7.641-9.404 13.592-10.762 5.953-1.357 12.117.026 16.915 3.798 14.601 11.479 34.995 11.479 49.596 0 4.799-3.772 10.962-5.155 16.915-3.798 5.951 1.358 10.905 5.281 13.592 10.762 8.174 16.676 26.55 25.522 44.684 21.519 5.959-1.319 12.116.111 16.888 3.917s7.534 9.489 7.577 15.593c.129 18.571 12.845 34.516 30.922 38.775 5.942 1.4 10.868 5.357 13.517 10.857 2.648 5.5 2.67 11.818.06 17.337-7.94 16.788-3.402 36.671 11.037 48.351 4.746 3.839 7.467 9.542 7.467 15.646s-2.722 11.807-7.468 15.646c-14.438 11.68-18.977 31.563-11.036 48.352 2.61 5.518 2.588 11.837-.061 17.336-2.648 5.5-7.575 9.457-13.516 10.857-18.077 4.259-30.793 20.204-30.922 38.775-.043 6.104-2.804 11.788-7.577 15.593-4.772 3.806-10.927 5.233-16.889 3.917-18.133-4.007-36.509 4.843-44.683 21.519-2.687 5.481-7.641 9.403-13.592 10.762zm114.664 44.143c-2.571-.697-5.312-.34-7.618.991-2.306 1.332-3.986 3.528-4.667 6.102l-10.254 38.75-56.384-97.659c4.74-4.526 11.511-6.563 18.22-5.079 11.885 2.625 24.157-.221 33.672-7.809 5.697-4.543 9.943-10.435 12.463-17.039l53.254 92.238z"/><path id="XMLID_357_" d="m303.586 278.895c2.063 0 4.126-.637 5.878-1.91 3.496-2.54 4.965-7.039 3.642-11.152l-15.763-49.008 41.569-30.543c3.483-2.559 4.928-7.067 3.582-11.174-1.347-4.107-5.18-6.884-9.502-6.884h-51.44l-16.041-48.875c-1.348-4.106-5.18-6.882-9.501-6.882s-8.154 2.776-9.501 6.882l-16.041 48.875h-51.44c-4.322 0-8.156 2.777-9.502 6.884-1.347 4.107.098 8.615 3.582 11.174l41.569 30.543-15.763 49.008c-1.323 4.114.146 8.612 3.642 11.152 3.497 2.54 8.229 2.546 11.732.017l41.724-30.126 41.724 30.126c1.744 1.262 3.796 1.893 5.85 1.893zm-41.724-52.46c-1.748-1.262-3.801-1.893-5.854-1.893s-4.106.631-5.854 1.893l-22.874 16.516 8.639-26.859c1.317-4.095-.132-8.574-3.599-11.121l-22.795-16.749h28.184c4.321 0 8.154-2.776 9.501-6.882l8.798-26.807 8.798 26.807c1.348 4.106 5.18 6.882 9.501 6.882h28.184l-22.795 16.749c-3.467 2.547-4.916 7.025-3.599 11.121l8.639 26.859z"/><path id="XMLID_358_" d="m396.008 203.272c0-77.196-62.804-140-140-140s-140 62.804-140 140c0 58.727 37.077 111.632 92.262 131.647 5.191 1.882 10.927-.799 12.811-5.991 1.883-5.192-.799-10.927-5.991-12.811-47.301-17.155-79.081-62.504-79.081-112.845 0-66.168 53.832-120 120-120s120 53.832 120 120c0 50.344-31.783 95.694-79.087 112.848-5.192 1.883-7.875 7.618-5.992 12.81 1.475 4.066 5.312 6.594 9.401 6.594 1.132 0 2.283-.194 3.409-.602 55.188-20.013 92.268-72.919 92.268-131.65z"/><path id="XMLID_676_" d="m256.008 323.27c-2.63 0-5.21 1.07-7.07 2.93s-2.93 4.44-2.93 7.07 1.07 5.21 2.93 7.07 4.44 2.93 7.07 2.93 5.21-1.07 7.07-2.93 2.93-4.44 2.93-7.07-1.07-5.21-2.93-7.07-4.44-2.93-7.07-2.93z"/></g></g></svg>