<svg height="512" viewBox="0 0 64 64" width="512" fill="green"  xmlns="http://www.w3.org/2000/svg"><g id="Route"><path d="m62 18a1 1 0 0 0 -.553-.895l-30-15a1 1 0 0 0 -1.4 1.211l4.899 14.684-4.895 14.684a1 1 0 0 0 .949 1.316 1.011 1.011 0 0 0 .447-.1l30-15a1 1 0 0 0 .553-.9zm-29.288-13.026 24.052 12.026h-20.043zm4.009 14.026h20.043l-24.052 12.026z"/><path d="m13.048 37.99-.094 2c.172.008.345.012.516.012h1.53v-2.002h-1.5c-.152 0-.3 0-.452-.01z"/><path d="m19.571 60h2v2h-2z"/><path d="m8.722 38.963a11.447 11.447 0 0 0 2.068.716l.469-1.945a9.445 9.445 0 0 1 -1.7-.589z"/><path d="m23.571 60h2v2h-2z"/><path d="m7.571 60h2v2h-2z"/><path d="m15.571 60h2v2h-2z"/><path d="m21 38h2v2h-2z"/><path d="m17 38h2v2h-2z"/><path d="m11.571 60h2v2h-2z"/><path d="m15 17h2v2h-2z"/><path d="m6.625 35.056-1.447 1.381a11.61 11.61 0 0 0 1.652 1.432l1.161-1.628a9.566 9.566 0 0 1 -1.366-1.185z"/><path d="m19 17h2v2h-2z"/><path d="m13.047 19.011-.093-2a11.517 11.517 0 0 0 -2.165.309l.47 1.944a9.525 9.525 0 0 1 1.788-.253z"/><path d="m27 17h2v2h-2z"/><path d="m23 17h2v2h-2z"/><path d="m9.554 19.856-.832-1.819a11.59 11.59 0 0 0 -1.893 1.094l1.161 1.629a9.442 9.442 0 0 1 1.564-.904z"/><path d="m5.506 33.636a9.473 9.473 0 0 1 -.828-1.6l-1.857.743a11.5 11.5 0 0 0 1 1.944z"/><path d="m3.571 60h2v2h-2z"/><path d="m6.624 21.945-1.447-1.381a11.572 11.572 0 0 0 -1.353 1.718l1.682 1.083a9.468 9.468 0 0 1 1.118-1.42z"/><path d="m4.677 24.969-1.856-.743a11.3 11.3 0 0 0 -.615 2.1l1.963.376a9.6 9.6 0 0 1 .508-1.733z"/><path d="m4 28.5h-2a11.527 11.527 0 0 0 .206 2.176l1.964-.376a9.545 9.545 0 0 1 -.17-1.8z"/><path d="m55.941 41.955a10.041 10.041 0 0 1 1.359 1.208l1.46-1.368a12.015 12.015 0 0 0 -1.626-1.447z"/><path d="m49 38v2h1q.459 0 .908.041l.181-1.992c-.359-.032-.722-.049-1.089-.049z"/><path d="m51.425 59.9.282 1.98a11.911 11.911 0 0 0 2.12-.5l-.638-1.895a9.928 9.928 0 0 1 -1.764.415z"/><path d="m45 38h2v2h-2z"/><path d="m53.231 38.44-.537 1.927a9.933 9.933 0 0 1 1.7.645l.88-1.8a11.937 11.937 0 0 0 -2.043-.772z"/><path d="m47.571 60h2v2h-2z"/><path d="m59.787 47.937a10.064 10.064 0 0 1 .21 1.8l2-.051a11.971 11.971 0 0 0 -.252-2.163z"/><path d="m59.439 53.313 1.888.661a12.1 12.1 0 0 0 .53-2.113l-1.977-.308a9.9 9.9 0 0 1 -.441 1.76z"/><path d="m43.571 60h2v2h-2z"/><path d="m25 38h2v2h-2z"/><path d="m54.849 58.748.972 1.748a11.969 11.969 0 0 0 1.8-1.226l-1.27-1.544a10.081 10.081 0 0 1 -1.502 1.022z"/><path d="m57.642 56.45 1.527 1.291a11.98 11.98 0 0 0 1.25-1.784l-1.735-.994a10.024 10.024 0 0 1 -1.042 1.487z"/><path d="m41 38h2v2h-2z"/><path d="m31.571 60h2v2h-2z"/><path d="m61.1 45.443a11.892 11.892 0 0 0 -1-1.931l-1.682 1.082a10.048 10.048 0 0 1 .84 1.609z"/><path d="m29 38h2v2h-2z"/><path d="m33 38h2v2h-2z"/><path d="m27.571 60h2v2h-2z"/><path d="m39.571 60h2v2h-2z"/><path d="m37 38h2v2h-2z"/><path d="m35.571 60h2v2h-2z"/><path d="m31 17h2v2h-2z"/></g></svg>